<?xml version="1.0" encoding="UTF-8"?>
<svg xmlns="http://www.w3.org/2000/svg" viewBox="0 0 256 256" role="img" aria-label="priorlife">
  <rect width="256" height="256" rx="24" fill="var(--institution-logo-bg, #f3f4f6)"/>
  <g transform="translate(16.00 105.37) scale(0.257471)">
    <defs><style>.cls-1{fill:#2b2d33;}.cls-2{fill:#ffe000;}</style></defs><path class="cls-1" d="M467.82,106V24h19.11v5.73a20.25,20.25,0,0,1,7.87-5.44,28.46,28.46,0,0,1,10.78-2A28.94,28.94,0,0,1,520.31,26a26.23,26.23,0,0,1,10.34,10.68,33.5,33.5,0,0,1,3.83,16.47,33.47,33.47,0,0,1-2.19,12.25,29.65,29.65,0,0,1-6.07,9.83,28.3,28.3,0,0,1-9.32,6.52,29.3,29.3,0,0,1-11.75,2.31A27.09,27.09,0,0,1,497.28,83a24.18,24.18,0,0,1-7.08-3.48V106H467.82Zm33.61-41a11.53,11.53,0,0,0,5.73-1.41,10.5,10.5,0,0,0,4-4.1,12.74,12.74,0,0,0,1.46-6.29,12.35,12.35,0,0,0-1.52-6.3,10.18,10.18,0,0,0-4-4,11.06,11.06,0,0,0-5.67-1.45,11.52,11.52,0,0,0-5.74,1.45,10.42,10.42,0,0,0-4,4,12.76,12.76,0,0,0-1.46,6.3,12.85,12.85,0,0,0,1.46,6.29,10.42,10.42,0,0,0,4,4.1A12,12,0,0,0,501.43,65Z"/><path class="cls-1" d="M425.15,84.09a34.47,34.47,0,0,1-17.25-4.22,31.25,31.25,0,0,1-11.63-11.24,30.39,30.39,0,0,1-1.8-27.09,31.6,31.6,0,0,1,6.8-9.89,32.9,32.9,0,0,1,10.51-6.85,36.88,36.88,0,0,1,30.58,1.68A30.81,30.81,0,0,1,454,37.72a29.46,29.46,0,0,1,4.22,15.45,28.81,28.81,0,0,1-2.42,11.64A30,30,0,0,1,449,74.7a32.3,32.3,0,0,1-10.45,6.85,34.16,34.16,0,0,1-13.38,2.54Zm0-19.1a11.44,11.44,0,0,0,5.67-1.41,10.5,10.5,0,0,0,4.05-4.1,12.41,12.41,0,0,0,1.51-6.29,12.86,12.86,0,0,0-1.45-6.3,10.18,10.18,0,0,0-4.05-4,11.2,11.2,0,0,0-5.73-1.45,11.77,11.77,0,0,0-5.8,1.45,10.1,10.1,0,0,0-4,4,12.75,12.75,0,0,0-1.45,6.3,12.93,12.93,0,0,0,1.45,6.29,11,11,0,0,0,4.05,4.1A11.87,11.87,0,0,0,425.15,65Z"/><path class="cls-1" d="M319.76,82.4V24h21.36V51.38l21-27.42h20.34V82.4H361.12V54.52l-21,27.88Z"/><path class="cls-1" d="M243.47,106V24h19.11v5.73a20.32,20.32,0,0,1,7.87-5.44,28.54,28.54,0,0,1,10.79-2A28.94,28.94,0,0,1,296,26a26.29,26.29,0,0,1,10.34,10.68,33.5,33.5,0,0,1,3.82,16.47,33.26,33.26,0,0,1-2.2,12.25,29.79,29.79,0,0,1-6.06,9.83,28.24,28.24,0,0,1-9.33,6.52A29.28,29.28,0,0,1,280.8,84.1,27,27,0,0,1,272.93,83a24.11,24.11,0,0,1-7.09-3.48V106H243.47Zm33.61-41a11.6,11.6,0,0,0,5.74-1.41,10.5,10.5,0,0,0,4.05-4.1,12.74,12.74,0,0,0,1.45-6.29,12.45,12.45,0,0,0-1.51-6.3,10.12,10.12,0,0,0-4.05-4,11.12,11.12,0,0,0-5.68-1.45,11.48,11.48,0,0,0-5.73,1.45,10.51,10.51,0,0,0-4.05,4,12.76,12.76,0,0,0-1.46,6.3,12.85,12.85,0,0,0,1.46,6.29,10.56,10.56,0,0,0,4,4.1A12,12,0,0,0,277.08,65Z"/><path class="cls-1" d="M156.14,82.4V3.73h71.71V82.4h-22.7v-58h-26.3v58Z"/><path class="cls-2" d="M628.12,82.4,594.25,3.73H570.09L536.22,82.4h24.13l21.83-50.68L604,82.4Z"/><path class="cls-2" d="M865.12,36.6c-3.27-4.58-8.14-8-14.61-10.46a56.4,56.4,0,0,0-13.32-3.05V3.73H814.71V23.21a57,57,0,0,0-12.65,2.95q-9.82,3.64-14.89,10.57a27,27,0,0,0-5,16.47A27.85,27.85,0,0,0,787,69.72q4.95,6.86,14.61,10.51a57.63,57.63,0,0,0,13.09,3V106h22.48V83.2a68.21,68.21,0,0,0,7.42-1.34,41.92,41.92,0,0,0,13.88-6,26.24,26.24,0,0,0,8.59-9.62,28.29,28.29,0,0,0,2.93-13q0-9.73-4.88-16.58ZM812.57,64.7c-3.22-1-5.49-2.41-6.79-4.32a12.46,12.46,0,0,1-2-7.19A12.65,12.65,0,0,1,805.72,46c1.31-1.92,3.56-3.34,6.75-4.28.69-.2,1.44-.39,2.24-.55v24C814,65.06,813.23,64.89,812.57,64.7Zm33.66-4.32c-1.28,1.91-3.52,3.35-6.75,4.32-.7.2-1.48.38-2.3.55V41.17c.8.17,1.56.35,2.24.55q4.85,1.39,6.8,4.28a12.43,12.43,0,0,1,2,7.19,12.46,12.46,0,0,1-2,7.19Z"/><path class="cls-2" d="M709.78,82.4V24h21.35V51.38l21-27.42H772.5V82.4H751.14V54.52l-21,27.88Z"/><path class="cls-2" d="M676.75,24v5.79a19.22,19.22,0,0,0-4.78-4,25.23,25.23,0,0,0-13.43-3.49,29,29,0,0,0-11.18,2.14,26.14,26.14,0,0,0-9,6.19,28,28,0,0,0-6,9.72,36.43,36.43,0,0,0-2.14,12.86,34.82,34.82,0,0,0,3.71,16.52A27.06,27.06,0,0,0,644.1,80.37a28.36,28.36,0,0,0,14.44,3.72A25.08,25.08,0,0,0,672,80.66a19.35,19.35,0,0,0,4.78-4V82.4h19V24ZM672,59.47a10.77,10.77,0,0,1-3.93,4.1,10.64,10.64,0,0,1-5.4,1.41,10.77,10.77,0,0,1-5.45-1.41,11,11,0,0,1-3.88-4.1,12.76,12.76,0,0,1-1.46-6.3,12.85,12.85,0,0,1,1.46-6.29,10.45,10.45,0,0,1,9.33-5.51,10.32,10.32,0,0,1,5.4,1.46A10.16,10.16,0,0,1,672,46.88a12.85,12.85,0,0,1,1.45,6.29A13,13,0,0,1,672,59.47Z"/><path class="cls-2" d="M731.75,18.46h19.78l6.93-11.09,2.3-3.64H741l-2.3,3.64-6.93,11.09Z"/><path class="cls-1" d="M121,86.13H74L65.8,72.92l23.48-37.6Z"/><path class="cls-2" d="M100.74,0h-47L0,86.13H46.94Z"/><path class="cls-1" d="M528.24,151.88a62.42,62.42,0,0,1-.43,8.16,9.41,9.41,0,0,1-2,5,9.63,9.63,0,0,1-5,2.68l2.92,7.69a17.12,17.12,0,0,0,6.21-2.75,12.16,12.16,0,0,0,3.8-4.67,23,23,0,0,0,1.91-6.85,70,70,0,0,0,.54-9.27v-3.72h11.55v26.59h8.59V141.17H528.24Z"/><path class="cls-1" d="M445.68,161.59A94.15,94.15,0,0,0,454,153a25,25,0,0,0,4.09-6.41,15.37,15.37,0,0,0,1.14-5.74,13.34,13.34,0,0,0-2-7.42,13.49,13.49,0,0,0-5.78-4.94,20.2,20.2,0,0,0-8.69-1.74,23.21,23.21,0,0,0-8,1.41,21.12,21.12,0,0,0-6.85,4.06l3.09,6.34a13.91,13.91,0,0,1,4.93-3.29,16.52,16.52,0,0,1,6-1.1c2.95,0,5.24.67,6.85,2a6.81,6.81,0,0,1,2.45,5.61,10.85,10.85,0,0,1-1.24,4.9,25.6,25.6,0,0,1-4.1,5.47q-2.85,3-7.62,7.39L428,168.74v6h32.4v-7.29H439.34Z"/><path class="cls-1" d="M491.67,147.05a19.12,19.12,0,0,0-8.43-1.78,18.44,18.44,0,0,0-3.12.27,20.06,20.06,0,0,0-3.16.74l1.31-10.92h20.18v-7.55H472.16L469.71,150l3.59,3.9a21.09,21.09,0,0,1,4.13-1.38,18.8,18.8,0,0,1,3.9-.44,13.51,13.51,0,0,1,5.2.94,7.88,7.88,0,0,1,3.49,2.69,6.9,6.9,0,0,1,1.28,4.19,8.22,8.22,0,0,1-1.21,4.57,7.55,7.55,0,0,1-3.46,2.86,13.27,13.27,0,0,1-5.3,1,20.82,20.82,0,0,1-6.45-1,15,15,0,0,1-5.47-3.12l-2.69,6.95a19.5,19.5,0,0,0,6.65,3.45,28.33,28.33,0,0,0,8.43,1.25,21.28,21.28,0,0,0,9.3-1.92,14.53,14.53,0,0,0,8.49-13.63,14.62,14.62,0,0,0-2.11-8A13.81,13.81,0,0,0,491.67,147.05Z"/><path class="cls-1" d="M594.43,145.87a14.46,14.46,0,0,0-5.51-4.19,18,18,0,0,0-7.55-1.51,19.16,19.16,0,0,0-7.19,1.31,17.19,17.19,0,0,0-5.71,3.72,17,17,0,0,0-3.76,5.64A19.09,19.09,0,0,0,563.4,158a18.48,18.48,0,0,0,2.29,9.3,16.32,16.32,0,0,0,6.44,6.24,20,20,0,0,0,9.61,2.22,25.73,25.73,0,0,0,5-.51,26.66,26.66,0,0,0,5-1.44,15.32,15.32,0,0,0,3.92-2.22l-3-6a17.21,17.21,0,0,1-4.93,2.49,18.27,18.27,0,0,1-5.54.84,13.51,13.51,0,0,1-5.68-1.11,8.88,8.88,0,0,1-3.69-3.12A8.13,8.13,0,0,1,571.5,160h26.25a19.51,19.51,0,0,0-.23-7.85A15.4,15.4,0,0,0,594.43,145.87ZM572,153.93a7.41,7.41,0,0,1,2.85-5.3,9.93,9.93,0,0,1,6.32-1.95,8.64,8.64,0,0,1,6,1.95,7,7,0,0,1,2.25,5.3Z"/><polygon class="cls-1" points="807.77 159.84 795.08 141.17 794.88 141.17 787.49 141.17 787.49 174.75 794.64 174.75 794.52 153.92 804.75 168.4 810.09 168.4 819.71 154.11 819.62 174.75 827.31 174.75 827.31 141.17 819.76 141.17 807.77 159.84"/><path class="cls-1" d="M770,145.72a13.61,13.61,0,0,0-3.76-3.47,15.14,15.14,0,0,0-8.19-2.08,17.31,17.31,0,0,0-6.82,1.31,15.91,15.91,0,0,0-5.37,3.69,16.76,16.76,0,0,0-3.49,5.64,19.89,19.89,0,0,0-1.25,7.15,18.93,18.93,0,0,0,2.19,9.2,16.13,16.13,0,0,0,6,6.31,16.73,16.73,0,0,0,8.77,2.29,15.23,15.23,0,0,0,8.19-2.08,13.92,13.92,0,0,0,3.76-3.47v4.54h7.55V141.17H770Zm-2.25,17.72a9.23,9.23,0,0,1-3.46,3.55,9.84,9.84,0,0,1-5,1.25,10,10,0,0,1-5-1.25,9.23,9.23,0,0,1-3.46-3.55,12.71,12.71,0,0,1,0-10.95,8.92,8.92,0,0,1,3.46-3.56,10,10,0,0,1,5-1.24,9.83,9.83,0,0,1,5,1.24,8.92,8.92,0,0,1,3.46,3.56,12.35,12.35,0,0,1,0,10.95Z"/><polygon class="cls-1" points="601.75 148.16 612.33 148.16 612.33 174.75 620.93 174.75 620.93 148.16 631.5 148.16 631.5 141.17 601.75 141.17 601.75 148.16"/><polygon class="cls-1" points="862.41 141.17 845.46 162.39 845.46 141.17 837.2 141.17 837.2 174.75 844.68 174.75 861.74 153.26 861.74 174.75 870 174.75 870 141.17 862.41 141.17"/><path class="cls-1" d="M729.85,156.57l.72-.35a8.64,8.64,0,0,0,2.92-2.62,6.68,6.68,0,0,0,1.07-3.76,7.14,7.14,0,0,0-3.42-6.48q-3.39-2.19-9.2-2.19H705.38v33.58h17.13a19.5,19.5,0,0,0,7.28-1.21,9.93,9.93,0,0,0,4.6-3.46,8.94,8.94,0,0,0,1.62-5.37,7.8,7.8,0,0,0-2.59-6A10.26,10.26,0,0,0,729.85,156.57Zm-9.29-9.29a8.64,8.64,0,0,1,4.33.91,3.1,3.1,0,0,1,1.58,2.89,3,3,0,0,1-1.55,2.85,8.94,8.94,0,0,1-4.36.88h-6.92v-7.53ZM726,167.63a8.74,8.74,0,0,1-4.6,1h-7.73v-8h7.73a8.65,8.65,0,0,1,4.6,1,3.29,3.29,0,0,1,1.61,3A3.38,3.38,0,0,1,726,167.63Z"/><path class="cls-1" d="M675.19,167.33a12.07,12.07,0,0,1-4.64.91,10.77,10.77,0,0,1-7.75-2.72,10.14,10.14,0,0,1-2.83-7.59,11.2,11.2,0,0,1,1.28-5.54,8.49,8.49,0,0,1,3.63-3.49,13.37,13.37,0,0,1,9.83-.51,10.14,10.14,0,0,1,3.6,2.08l4-6.48a17.33,17.33,0,0,0-5.54-2.88,21.76,21.76,0,0,0-6.54-.94,20.56,20.56,0,0,0-7.53,1.34,17.68,17.68,0,0,0-6,3.73,16.75,16.75,0,0,0-4,5.64,17.66,17.66,0,0,0,7.48,22.56,19.3,19.3,0,0,0,9.51,2.32,20.78,20.78,0,0,0,6.91-1.18,22.8,22.8,0,0,0,6.15-3.22L679,164.85A12,12,0,0,1,675.19,167.33Z"/>
  </g>
</svg>
